/* XPM */
static char *_95bfce18f0740c1a81c1a7f68d6a711fzTBy4jJ3bsZpaZ1[] = {
/* columns rows colors chars-per-pixel */
"116 128 11 1 ",
"  c None",
". c black",
"X c #58360C",
"o c #4A4949",
"O c gray37",
"+ c #8D591A",
"@ c #A86514",
"# c #C47B22",
"$ c #979593",
"% c #C6C4C1",
"& c #E1E1E1",
/* pixels */
"                  ................................................................................                  ",
"                  ................................................................................                  ",
"                ..ooOOOOOO$$$$%%%%%%&&&&&&%%%%%%$$$$$$$$$$$$$$$$$$$$$$OOOOOOOOOOOOOOOOOOooooooooOO..                ",
"                ..ooOOOOOO$$$$%%%%%%&&&&&&%%%%%%$$$$$$$$$$$$$$$$$$$$$$OOOOOOOOOOOOOOOOOOooooooooOO..                ",
"              ..ooOOOOOO$$$$%%%%%%&&&&&&&&%%%%%%$$$$$$$$$$$$$$$$$$$$$$OOOOOOOOOOOOOOOOOOOOooooooooOO..              ",
"              ..ooOOOOOO$$$$%%%%%%&&&&&&&&%%%%%%$$$$$$$$$$$$$$$$$$$$$$OOOOOOOOOOOOOOOOOOOOooooooooOO..              ",
"            ..ooOOOOOO$$$$%%%%%%&&&&&&&&%%%%%%%%$$$$$$$$$$$$$$$$$$$$$$OOOOOOOOOOOOOOOOOOOOooooooooooOO..            ",
"            ..ooOOOOOO$$$$%%%%%%&&&&&&&&%%%%%%%%$$$$$$$$$$$$$$$$$$$$$$OOOOOOOOOOOOOOOOOOOOooooooooooOO..            ",
"            ..ooOOOOOO$$$$%%%%%%&&&&&&&&%%%%%%%%$$$$$$$$$$$$$$$$$$$$$$OOOOOOOOOOOOOOOOOOOOOOooooooooOO..            ",
"            ..ooOOOOOO$$$$%%%%%%&&&&&&&&%%%%%%%%$$$$$$$$$$$$$$$$$$$$$$OOOOOOOOOOOOOOOOOOOOOOooooooooOO..            ",
"          ..++++++++++++XX@@############XX########@@@@@@@@@@XX@@@@@@@@@@@@@@++++++++XX++++++++++++++XX++..          ",
"          ..++++++++++++XX@@############XX########@@@@@@@@@@XX@@@@@@@@@@@@@@++++++++XX++++++++++++++XX++..          ",
"          ..++++++++++XX@@@@############XX########@@@@@@@@@@XX@@@@@@@@@@@@@@++++++++XX++++++++++++++XX++..          ",
"          ..++++++++++XX@@@@############XX########@@@@@@@@@@XX@@@@@@@@@@@@@@++++++++XX++++++++++++++XX++..          ",
"        ..++++++++++++XX@@############XX##########@@@@@@@@@@XX@@@@@@@@@@@@@@++++++++XX++++++++++++++++XX++..        ",
"        ..++++++++++++XX@@############XX##########@@@@@@@@@@XX@@@@@@@@@@@@@@++++++++XX++++++++++++++++XX++..        ",
"        ..++++++++++XX@@@@############XX##########@@@@@@@@@@XX@@@@@@@@@@@@@@++++++++++XX++++++++++++++XX++..        ",
"        ..++++++++++XX@@@@############XX##########@@@@@@@@@@XX@@@@@@@@@@@@@@++++++++++XX++++++++++++++XX++..        ",
"      ..++++++++++++XX@@##############XX########@@@@@@@@@@@@XX@@@@@@@@@@@@@@@@++++++++XX++++++++++++++XX++++..      ",
"      ..++++++++++++XX@@##############XX########@@@@@@@@@@@@XX@@@@@@@@@@@@@@@@++++++++XX++++++++++++++XX++++..      ",
"      ..++++++++++XX@@@@##############XX########@@@@@@@@@@@@XX@@@@@@@@@@@@@@@@++++++++XX++++++++++++++++XX++..      ",
"      ..++++++++++XX@@@@##############XX########@@@@@@@@@@@@XX@@@@@@@@@@@@@@@@++++++++XX++++++++++++++++XX++..      ",
"    ..++++++++++++XX@@@@############XX##########@@@@@@@@@@@@XX@@@@@@@@@@@@@@@@++++++++XX++++++++++++++++XX++++..    ",
"    ..++++++++++++XX@@@@############XX##########@@@@@@@@@@@@XX@@@@@@@@@@@@@@@@++++++++XX++++++++++++++++XX++++..    ",
"    ..++++++++++XX@@@@##############XX##########@@@@@@@@@@@@XX@@@@@@@@@@@@@@@@++++++++++XX++++++++++++++++XX++..    ",
"    ..++++++++++XX@@@@##############XX##########@@@@@@@@@@@@XX@@@@@@@@@@@@@@@@++++++++++XX++++++++++++++++XX++..    ",
"    ..++++++++++XX@@@@##############XX##########@@@@@@@@@@@@XX@@@@@@@@@@@@@@@@++++++++++XX++++++++++++++++XX++..    ",
"    ..++++++++++XX@@@@##############XX##########@@@@@@@@@@@@XX@@@@@@@@@@@@@@@@++++++++++XX++++++++++++++++XX++..    ",
"  ..ooOOOOOO$$$$%%%%%%%%&&&&&&&&%%%%%%%%$$$$$$$$$$$$$$$$$$$$$$$$$$$$$$$$$$$$OOOOOOOOOOOOOOOOOOOOOOOOooooooooOOOO..  ",
"  ..ooOOOOOO$$$$%%%%%%%%&&&&&&&&%%%%%%%%$$$$$$$$$$$$$$$$$$$$$$$$$$$$$$$$$$$$OOOOOOOOOOOOOOOOOOOOOOOOooooooooOOOO..  ",
"  ..ooOOOOOO$$$$%%%%%%%%&&&&&&&&%%%%%%%%$$$$$$$$$$$$$$$$$$$$$$$$$$$$$$$$$$$$OOOOOOOOOOOOOOOOOOOOOOOOooooooooOOOO..  ",
"  ..ooOOOOOO$$$$%%%%%%%%&&&&&&&&%%%%%%%%$$$$$$$$$$$$$$$$$$$$$$$$$$$$$$$$$$$$OOOOOOOOOOOOOOOOOOOOOOOOooooooooOOOO..  ",
"  ..ooOOOOOO$$$$%%%%%%%%&&&&&&&&%%%%%%%%$$$$$$$$$$$$$$$$$$$$$$$$$$$$$$$$$$$$OOOOOOOOOOOOOOOOOOOOOOOOooooooooOOOO..  ",
"  ..ooOOOOOO$$$$%%%%%%%%&&&&&&&&%%%%%%%%$$$$$$$$$$$$$$$$$$$$$$$$$$$$$$$$$$$$OOOOOOOOOOOOOOOOOOOOOOOOooooooooOOOO..  ",
"  ..ooOOOOOO$$$$%%%%%%%%&&&&&&&&%%%%%%%%$$$$$$$$$$$$$$$$$$$$$$$$$$$$$$$$$$$$OOOOOOOOOOOOOOOOOOOOOOOOooooooooOOOO..  ",
"  ..ooOOOOOO$$$$%%%%%%%%&&&&&&&&%%%%%%%%$$$$$$$$$$$$$$$$$$$$$$$$$$$$$$$$$$$$OOOOOOOOOOOOOOOOOOOOOOOOooooooooOOOO..  ",
"..++++++++++XX@@@@################XX##########@@@@@@@@@@@@@@XX@@@@@@@@@@@@@@@@++++++++++++XX++++++++++++++++++XX++..",
"..++++++++++XX@@@@################XX##########@@@@@@@@@@@@@@XX@@@@@@@@@@@@@@@@++++++++++++XX++++++++++++++++++XX++..",
"..++++++++++XX@@@@################XX##########@@@@@@@@@@@@@@XX@@@@@@@@@@@@@@@@++++++++++++XX++++++++++++++++++XX++..",
"..++++++++++XX@@@@################XX##########@@@@@@@@@@@@@@XX@@@@@@@@@@@@@@@@++++++++++++XX++++++++++++++++++XX++..",
"..++++++++++XX@@@@################XX##########@@@@@@@@@@@@@@XX@@@@@@@@@@@@@@@@++++++++++++XX++++++++++++++++++XX++..",
"..++++++++++XX@@@@################XX##########@@@@@@@@@@@@@@XX@@@@@@@@@@@@@@@@++++++++++++XX++++++++++++++++++XX++..",
"..++++++++++XX@@@@################XX##########@@@@@@@@@@@@@@XX@@@@@@@@@@@@@@@@++++++++++++XX++++++++++++++++++XX++..",
"..++++++++++XX@@@@################XX##########@@@@@@@@@@@@@@XX@@@@@@@@@@@@@@@@++++++++++++XX++++++++++++++++++XX++..",
"..++++++++XX@@@@@@################XX##########@@@@@@@@@@@@@@XX@@@@@@@@@@@@@@@@@@++++++++++XX++++++++++++++++++XX++..",
"..++++++++XX@@@@@@################XX##########@@@@@@@@@@@@@@XX@@@@@@@@@@@@@@@@@@++++++++++XX++++++++++++++++++XX++..",
"..++++++++XX@@@@##################XX##########@@@@@@@@@@@@@@XX@@@@@@@@@@@@@@@@@@++++++++++XX++++++++++++++++++XX++..",
"..++++++++XX@@@@##################XX##########@@@@@@@@@@@@@@XX@@@@@@@@@@@@@@@@@@++++++++++XX++++++++++++++++++XX++..",
"..++++++++XX@@@@################XX############@@@@@@@@@@@@@@XX@@@@@@@@@@@@@@@@@@++++++++++++XX++++++++++++++++XX++..",
"..++++++++XX@@@@################XX############@@@@@@@@@@@@@@XX@@@@@@@@@@@@@@@@@@++++++++++++XX++++++++++++++++XX++..",
"..++++++++XX@@@@################XX############@@@@@@@@@@@@@@XX@@@@@@@@@@@@@@@@@@++++++++++++XX++++++++++++++++XX++..",
"..++++++++XX@@@@################XX############@@@@@@@@@@@@@@XX@@@@@@@@@@@@@@@@@@++++++++++++XX++++++++++++++++XX++..",
"..++++++++XX@@@@################XX############@@@@@@@@@@@@@@XX@@@@@@@@@@@@@@@@@@++++++++++++XX++++++++++++++++XX++..",
"..++++++++XX@@@@################XX############@@@@@@@@@@@@@@XX@@@@@@@@@@@@@@@@@@++++++++++++XX++++++++++++++++XX++..",
"..++++++++XX@@@@################XX############@@@@@@@@@@@@@@XX@@@@@@@@@@@@@@@@@@++++++++++++XX++++++++++++++++XX++..",
"..++++++++XX@@@@################XX############@@@@@@@@@@@@@@XX@@@@@@@@@@@@@@@@@@++++++++++++XX++++++++++++++++XX++..",
"..++++++++XX@@@@################XX############@@@@@@@@@@@@@@XX@@@@@@@@@@@@@@@@@@++++++++++++XX++++++++++++++++XX++..",
"..++++++++XX@@@@################XX############@@@@@@@@@@@@@@XX@@@@@@@@@@@@@@@@@@++++++++++++XX++++++++++++++++XX++..",
"..++++++++XX@@@@################XX############@@@@@@@@@@@@@@XX@@@@@@@@@@@@@@@@@@++++++++++++XX++++++++++++++++XX++..",
"..++++++++XX@@@@################XX############@@@@@@@@@@@@@@XX@@@@@@@@@@@@@@@@@@++++++++++++XX++++++++++++++++XX++..",
"..++++++++XX@@@@################XX############@@@@@@@@@@@@@@XX@@@@@@@@@@@@@@@@@@++++++++++++XX++++++++++++++++XX++..",
"..++++++++XX@@@@################XX############@@@@@@@@@@@@@@XX@@@@@@@@@@@@@@@@@@++++++++++++XX++++++++++++++++XX++..",
"..++++++++XX@@@@################XX############@@@@@@@@@@@@@@XX@@@@@@@@@@@@@@@@@@++++++++++++XX++++++++++++++++XX++..",
"..++++++++XX@@@@################XX############@@@@@@@@@@@@@@XX@@@@@@@@@@@@@@@@@@++++++++++++XX++++++++++++++++XX++..",
"..++++++++XX@@@@################XX############@@@@@@@@@@@@@@XX@@@@@@@@@@@@@@@@@@++++++++++++XX++++++++++++++++XX++..",
"..++++++++XX@@@@################XX############@@@@@@@@@@@@@@XX@@@@@@@@@@@@@@@@@@++++++++++++XX++++++++++++++++XX++..",
"..++++++++XX@@@@################XX############@@@@@@@@@@@@@@XX@@@@@@@@@@@@@@@@@@++++++++++++XX++++++++++++++++XX++..",
"..++++++++XX@@@@################XX############@@@@@@@@@@@@@@XX@@@@@@@@@@@@@@@@@@++++++++++++XX++++++++++++++++XX++..",
"..++++++++XX@@@@################XX############@@@@@@@@@@@@@@XX@@@@@@@@@@@@@@@@@@++++++++++++XX++++++++++++++++XX++..",
"..++++++++XX@@@@################XX############@@@@@@@@@@@@@@XX@@@@@@@@@@@@@@@@@@++++++++++++XX++++++++++++++++XX++..",
"..++++++++XX@@@@################XX############@@@@@@@@@@@@@@XX@@@@@@@@@@@@@@@@@@++++++++++++XX++++++++++++++++XX++..",
"..++++++++XX@@@@################XX############@@@@@@@@@@@@@@XX@@@@@@@@@@@@@@@@@@++++++++++++XX++++++++++++++++XX++..",
"..++++++++XX@@@@################XX############@@@@@@@@@@@@@@XX@@@@@@@@@@@@@@@@@@++++++++++++XX++++++++++++++++XX++..",
"..++++++++XX@@@@################XX############@@@@@@@@@@@@@@XX@@@@@@@@@@@@@@@@@@++++++++++++XX++++++++++++++++XX++..",
"..++++++++XX@@@@################XX############@@@@@@@@@@@@@@XX@@@@@@@@@@@@@@@@@@++++++++++++XX++++++++++++++++XX++..",
"..++++++++XX@@@@################XX############@@@@@@@@@@@@@@XX@@@@@@@@@@@@@@@@@@++++++++++++XX++++++++++++++++XX++..",
"..++++++++XX@@@@################XX############@@@@@@@@@@@@@@XX@@@@@@@@@@@@@@@@@@++++++++++XX++++++++++++++++++XX++..",
"..++++++++XX@@@@################XX############@@@@@@@@@@@@@@XX@@@@@@@@@@@@@@@@@@++++++++++XX++++++++++++++++++XX++..",
"..++++++++XX@@@@################XX############@@@@@@@@@@@@@@XX@@@@@@@@@@@@@@@@@@++++++++++XX++++++++++++++++++XX++..",
"..++++++++XX@@@@################XX############@@@@@@@@@@@@@@XX@@@@@@@@@@@@@@@@@@++++++++++XX++++++++++++++++++XX++..",
"..++++++++XX@@@@##################XX##########@@@@@@@@@@@@@@XX@@@@@@@@@@@@@@@@@@++++++++++XX++++++++++++++++++XX++..",
"..++++++++XX@@@@##################XX##########@@@@@@@@@@@@@@XX@@@@@@@@@@@@@@@@@@++++++++++XX++++++++++++++++++XX++..",
"..++++++++XX@@@@@@################XX##########@@@@@@@@@@@@@@XX@@@@@@@@@@@@@@@@++++++++++++XX++++++++++++++++++XX++..",
"..++++++++XX@@@@@@################XX##########@@@@@@@@@@@@@@XX@@@@@@@@@@@@@@@@++++++++++++XX++++++++++++++++++XX++..",
"..++++++++++XX@@@@################XX##########@@@@@@@@@@@@@@XX@@@@@@@@@@@@@@@@++++++++++++XX++++++++++++++++++XX++..",
"..++++++++++XX@@@@################XX##########@@@@@@@@@@@@@@XX@@@@@@@@@@@@@@@@++++++++++++XX++++++++++++++++++XX++..",
"..++++++++++XX@@@@################XX##########@@@@@@@@@@@@@@XX@@@@@@@@@@@@@@@@++++++++++++XX++++++++++++++++++XX++..",
"..++++++++++XX@@@@################XX##########@@@@@@@@@@@@@@XX@@@@@@@@@@@@@@@@++++++++++++XX++++++++++++++++++XX++..",
"..++++++++++XX@@@@################XX##########@@@@@@@@@@@@@@XX@@@@@@@@@@@@@@@@++++++++++++XX++++++++++++++++++XX++..",
"..++++++++++XX@@@@################XX##########@@@@@@@@@@@@@@XX@@@@@@@@@@@@@@@@++++++++++++XX++++++++++++++++++XX++..",
"..++++++++++XX@@@@################XX##########@@@@@@@@@@@@@@XX@@@@@@@@@@@@@@@@++++++++++++XX++++++++++++++++++XX++..",
"..++++++++++XX@@@@################XX##########@@@@@@@@@@@@@@XX@@@@@@@@@@@@@@@@++++++++++++XX++++++++++++++++++XX++..",
"  ..ooOOOOOO$$$$%%%%%%%%&&&&&&&&%%%%%%%%$$$$$$$$$$$$$$$$$$$$$$$$$$$$$$$$$$$$OOOOOOOOOOOOOOOOOOOOOOOOooooooooOOOO..  ",
"  ..ooOOOOOO$$$$%%%%%%%%&&&&&&&&%%%%%%%%$$$$$$$$$$$$$$$$$$$$$$$$$$$$$$$$$$$$OOOOOOOOOOOOOOOOOOOOOOOOooooooooOOOO..  ",
"  ..ooOOOOOO$$$$%%%%%%%%&&&&&&&&%%%%%%%%$$$$$$$$$$$$$$$$$$$$$$$$$$$$$$$$$$$$OOOOOOOOOOOOOOOOOOOOOOOOooooooooOOOO..  ",
"  ..ooOOOOOO$$$$%%%%%%%%&&&&&&&&%%%%%%%%$$$$$$$$$$$$$$$$$$$$$$$$$$$$$$$$$$$$OOOOOOOOOOOOOOOOOOOOOOOOooooooooOOOO..  ",
"  ..ooOOOOOO$$$$%%%%%%%%&&&&&&&&%%%%%%%%$$$$$$$$$$$$$$$$$$$$$$$$$$$$$$$$$$$$OOOOOOOOOOOOOOOOOOOOOOOOooooooooOOOO..  ",
"  ..ooOOOOOO$$$$%%%%%%%%&&&&&&&&%%%%%%%%$$$$$$$$$$$$$$$$$$$$$$$$$$$$$$$$$$$$OOOOOOOOOOOOOOOOOOOOOOOOooooooooOOOO..  ",
"  ..ooOOOOOO$$$$%%%%%%%%&&&&&&&&%%%%%%%%$$$$$$$$$$$$$$$$$$$$$$$$$$$$$$$$$$$$OOOOOOOOOOOOOOOOOOOOOOOOooooooooOOOO..  ",
"  ..ooOOOOOO$$$$%%%%%%%%&&&&&&&&%%%%%%%%$$$$$$$$$$$$$$$$$$$$$$$$$$$$$$$$$$$$OOOOOOOOOOOOOOOOOOOOOOOOooooooooOOOO..  ",
"    ..++++++++++XX@@@@##############XX##########@@@@@@@@@@@@XX@@@@@@@@@@@@@@@@++++++++++XX++++++++++++++++XX++..    ",
"    ..++++++++++XX@@@@##############XX##########@@@@@@@@@@@@XX@@@@@@@@@@@@@@@@++++++++++XX++++++++++++++++XX++..    ",
"    ..++++++++++XX@@@@##############XX##########@@@@@@@@@@@@XX@@@@@@@@@@@@@@@@++++++++++XX++++++++++++++++XX++..    ",
"    ..++++++++++XX@@@@##############XX##########@@@@@@@@@@@@XX@@@@@@@@@@@@@@@@++++++++++XX++++++++++++++++XX++..    ",
"    ..++++++++++++XX@@@@############XX##########@@@@@@@@@@@@XX@@@@@@@@@@@@@@@@++++++++XX++++++++++++++++XX++++..    ",
"    ..++++++++++++XX@@@@############XX##########@@@@@@@@@@@@XX@@@@@@@@@@@@@@@@++++++++XX++++++++++++++++XX++++..    ",
"      ..++++++++++XX@@@@##############XX########@@@@@@@@@@@@XX@@@@@@@@@@@@@@@@++++++++XX++++++++++++++++XX++..      ",
"      ..++++++++++XX@@@@##############XX########@@@@@@@@@@@@XX@@@@@@@@@@@@@@@@++++++++XX++++++++++++++++XX++..      ",
"      ..++++++++++++XX@@##############XX########@@@@@@@@@@@@XX@@@@@@@@@@@@@@++++++++++XX++++++++++++++XX++++..      ",
"      ..++++++++++++XX@@##############XX########@@@@@@@@@@@@XX@@@@@@@@@@@@@@++++++++++XX++++++++++++++XX++++..      ",
"        ..++++++++++XX@@@@############XX##########@@@@@@@@@@XX@@@@@@@@@@@@@@++++++++++XX++++++++++++++XX++..        ",
"        ..++++++++++XX@@@@############XX##########@@@@@@@@@@XX@@@@@@@@@@@@@@++++++++++XX++++++++++++++XX++..        ",
"        ..++++++++++++XX@@############XX##########@@@@@@@@@@XX@@@@@@@@@@@@@@++++++++XX++++++++++++++++XX++..        ",
"        ..++++++++++++XX@@############XX##########@@@@@@@@@@XX@@@@@@@@@@@@@@++++++++XX++++++++++++++++XX++..        ",
"          ..++++++++++XX@@@@############XX########@@@@@@@@@@XX@@@@@@@@@@@@@@++++++++XX++++++++++++++XX++..          ",
"          ..++++++++++XX@@@@############XX########@@@@@@@@@@XX@@@@@@@@@@@@@@++++++++XX++++++++++++++XX++..          ",
"          ..++++++++++++XX@@############XX########@@@@@@@@@@XX@@@@@@@@@@@@@@++++++++XX++++++++++++++XX++..          ",
"          ..++++++++++++XX@@############XX########@@@@@@@@@@XX@@@@@@@@@@@@@@++++++++XX++++++++++++++XX++..          ",
"            ..ooOOOOOO$$$$%%%%%%&&&&&&&&%%%%%%%%$$$$$$$$$$$$$$$$$$$$$$OOOOOOOOOOOOOOOOOOOOOOooooooooOO..            ",
"            ..ooOOOOOO$$$$%%%%%%&&&&&&&&%%%%%%%%$$$$$$$$$$$$$$$$$$$$$$OOOOOOOOOOOOOOOOOOOOOOooooooooOO..            ",
"            ..ooOOOOOO$$$$%%%%%%&&&&&&&&%%%%%%%%$$$$$$$$$$$$$$$$$$$$$$OOOOOOOOOOOOOOOOOOOOooooooooooOO..            ",
"            ..ooOOOOOO$$$$%%%%%%&&&&&&&&%%%%%%%%$$$$$$$$$$$$$$$$$$$$$$OOOOOOOOOOOOOOOOOOOOooooooooooOO..            ",
"              ..ooOOOOOO$$$$%%%%%%&&&&&&&&%%%%%%$$$$$$$$$$$$$$$$$$$$$$OOOOOOOOOOOOOOOOOOOOooooooooOO..              ",
"              ..ooOOOOOO$$$$%%%%%%&&&&&&&&%%%%%%$$$$$$$$$$$$$$$$$$$$$$OOOOOOOOOOOOOOOOOOOOooooooooOO..              ",
"                ..ooOOOOOO$$$$%%%%%%&&&&&&%%%%%%$$$$$$$$$$$$$$$$$$$$$$OOOOOOOOOOOOOOOOOOooooooooOO..                ",
"                ..ooOOOOOO$$$$%%%%%%&&&&&&%%%%%%$$$$$$$$$$$$$$$$$$$$$$OOOOOOOOOOOOOOOOOOooooooooOO..                ",
"                  ................................................................................                  ",
"                  ................................................................................                  "
};
